<svg width="20" height="21" viewBox="0 0 20 21" fill="none" xmlns="http://www.w3.org/2000/svg">
<path d="M15.0737 16.025C14.0012 17.0103 12.6649 17.662 11.2282 17.9004C9.79138 18.1389 8.31625 17.9539 6.98287 17.368C5.64948 16.7822 4.51554 15.8207 3.71947 14.6011C2.92341 13.3815 2.49967 11.9564 2.5 10.5H3.75C3.74991 11.7589 4.12998 12.9884 4.84043 14.0277C5.55088 15.0669 6.5586 15.8674 7.73164 16.3243C8.90467 16.7812 10.1883 16.8732 11.4145 16.5883C12.6407 16.3034 13.7523 15.6548 14.6037 14.7275H12.7875C12.6217 14.7275 12.4628 14.6617 12.3456 14.5444C12.2283 14.4272 12.1625 14.2683 12.1625 14.1025C12.1625 13.9367 12.2283 13.7778 12.3456 13.6606C12.4628 13.5434 12.6217 13.4775 12.7875 13.4775H15.6987C15.8645 13.4775 16.0235 13.5434 16.1407 13.6606C16.2579 13.7778 16.3237 13.9367 16.3237 14.1025V17.0113C16.3237 17.177 16.2579 17.336 16.1407 17.4532C16.0235 17.5704 15.8645 17.6363 15.6987 17.6363C15.533 17.6363 15.374 17.5704 15.2568 17.4532C15.1396 17.336 15.0737 17.177 15.0737 17.0113V16.0238V16.025ZM5.39625 6.27376H7.2125C7.37826 6.27376 7.53723 6.3396 7.65444 6.45681C7.77165 6.57403 7.8375 6.733 7.8375 6.89876C7.8375 7.06452 7.77165 7.22349 7.65444 7.3407C7.53723 7.45791 7.37826 7.52376 7.2125 7.52376H4.3C4.13424 7.52376 3.97527 7.45791 3.85806 7.3407C3.74085 7.22349 3.675 7.06452 3.675 6.89876V3.98751C3.675 3.82175 3.74085 3.66277 3.85806 3.54556C3.97527 3.42835 4.13424 3.36251 4.3 3.36251C4.46576 3.36251 4.62473 3.42835 4.74194 3.54556C4.85915 3.66277 4.925 3.82175 4.925 3.98751V4.97501C5.99744 3.98851 7.33403 3.33579 8.77143 3.0966C10.2088 2.85742 11.6848 3.04214 13.0189 3.62818C14.353 4.21423 15.4875 5.17622 16.2837 6.39659C17.08 7.61696 17.5035 9.04285 17.5025 10.5H16.2525C16.2526 9.24097 15.8725 8.01125 15.1619 6.97191C14.4512 5.93258 13.4433 5.13209 12.2701 4.6753C11.0968 4.21851 9.81294 4.12671 8.58663 4.41193C7.36033 4.69716 6.24875 5.3461 5.3975 6.27376H5.39625Z" fill="white"/>
</svg>
