<svg width="18" height="18" viewBox="0 0 18 18" fill="none" xmlns="http://www.w3.org/2000/svg">
<path d="M8.99996 16.2916C7.5578 16.2916 6.14803 15.864 4.94893 15.0628C3.74982 14.2615 2.81523 13.1227 2.26334 11.7904C1.71145 10.458 1.56705 8.99187 1.8484 7.57743C2.12975 6.16298 2.82421 4.86373 3.84397 3.84397C4.86373 2.82421 6.16298 2.12975 7.57743 1.8484C8.99187 1.56705 10.458 1.71145 11.7904 2.26334C13.1227 2.81523 14.2615 3.74982 15.0628 4.94893C15.864 6.14803 16.2916 7.5578 16.2916 8.99996C16.2916 10.9338 15.5234 12.7885 14.1559 14.1559C12.7885 15.5234 10.9338 16.2916 8.99996 16.2916ZM8.99996 2.74996C7.76383 2.74996 6.55545 3.11652 5.52765 3.80327C4.49984 4.49003 3.69876 5.46615 3.22571 6.60819C2.75266 7.75023 2.62889 9.00689 2.87005 10.2193C3.11121 11.4317 3.70646 12.5453 4.58054 13.4194C5.45462 14.2935 6.56826 14.8887 7.78065 15.1299C8.99303 15.371 10.2497 15.2473 11.3917 14.7742C12.5338 14.3012 13.5099 13.5001 14.1966 12.4723C14.8834 11.4445 15.25 10.2361 15.25 8.99996C15.25 7.34236 14.5915 5.75264 13.4194 4.58054C12.2473 3.40844 10.6576 2.74996 8.99996 2.74996V2.74996Z" fill="#69698A"/>
<path d="M11.3906 12.125L8.47913 9.2135V4.31246H9.52079V8.78121L12.125 11.3906L11.3906 12.125Z" fill="#69698A"/>
</svg>
