<svg width="23" height="17" viewBox="0 0 23 17" fill="none" xmlns="http://www.w3.org/2000/svg">
<path d="M10.6788 6.144C10.3977 5.86281 10.3977 5.40695 10.6788 5.12576C10.9601 4.84457 11.416 4.84457 11.6971 5.12576L14.0731 7.50168L16.4489 5.12576C16.7301 4.84457 17.1859 4.84457 17.4672 5.12576C17.7483 5.40689 17.7483 5.86281 17.4672 6.144L15.0912 8.51986L17.4672 10.8958C17.7483 11.1769 17.7483 11.6328 17.4672 11.914C17.1859 12.1952 16.7301 12.1952 16.4489 11.914L14.0731 9.53811L11.6971 11.914C11.416 12.1952 10.9601 12.1952 10.679 11.914C10.3977 11.6328 10.3977 11.1769 10.679 10.8957L13.0548 8.51992L10.6788 6.144Z" fill="white"/>
<path fill-rule="evenodd" clip-rule="evenodd" d="M7.70955 1.20338L0.393066 8.51986L7.70955 15.8363C8.24967 16.3765 8.98221 16.6799 9.74603 16.6799H19.5931C21.1837 16.6799 22.4731 15.3904 22.4731 13.7999V3.23986C22.4731 1.64928 21.1837 0.359863 19.5931 0.359863H9.74603C8.98221 0.359863 8.24967 0.66332 7.70955 1.20338ZM19.5931 15.4319H9.74603C9.31314 15.4319 8.89807 15.2599 8.59197 14.9539L2.15803 8.51986L8.59197 2.08586C8.89807 1.77982 9.31314 1.60785 9.74603 1.60785H19.5931C20.4944 1.60785 21.225 2.33852 21.225 3.23986V13.7999C21.225 14.7012 20.4944 15.4319 19.5931 15.4319Z" fill="white"/>
</svg>
