<svg width="24" height="24" viewBox="0 0 24 24" fill="none" xmlns="http://www.w3.org/2000/svg">
<path d="M24 12C24 5.37258 18.6274 0 12 0V0C5.37258 0 0 5.37258 0 12V12C0 18.6274 5.37258 24 12 24V24C18.6274 24 24 18.6274 24 12V12Z" fill="white"/>
<path fill-rule="evenodd" clip-rule="evenodd" d="M17.8724 12.1364C17.8724 11.7109 17.8343 11.3018 17.7633 10.9091H12.1124V13.23H15.3415C15.2024 13.98 14.7797 14.6155 14.1442 15.0409V16.5464H16.0833C17.2179 15.5018 17.8724 13.9637 17.8724 12.1364Z" fill="#4285F4"/>
<path fill-rule="evenodd" clip-rule="evenodd" d="M12.1122 18C13.7322 18 15.0904 17.4627 16.0831 16.5463L14.144 15.0409C13.6067 15.4009 12.9195 15.6136 12.1122 15.6136C10.5495 15.6136 9.22673 14.5582 8.75492 13.14H6.75037V14.6945C7.73764 16.6554 9.76674 18 12.1122 18Z" fill="#34A853"/>
<path fill-rule="evenodd" clip-rule="evenodd" d="M8.75516 13.14C8.63516 12.78 8.56698 12.3954 8.56698 12C8.56698 11.6045 8.63516 11.22 8.75516 10.86V9.30542H6.75061C6.34425 10.1154 6.11243 11.0318 6.11243 12C6.11243 12.9682 6.34425 13.8845 6.75061 14.6945L8.75516 13.14Z" fill="#FBBC05"/>
<path fill-rule="evenodd" clip-rule="evenodd" d="M12.1122 8.38637C12.9931 8.38637 13.784 8.6891 14.4058 9.28364L16.1267 7.56273C15.0877 6.59455 13.7295 6 12.1122 6C9.76674 6 7.73764 7.34455 6.75037 9.30546L8.75492 10.86C9.22673 9.44183 10.5495 8.38637 12.1122 8.38637Z" fill="#EA4335"/>
</svg>
