<svg width="21" height="20" viewBox="0 0 21 20" fill="none" xmlns="http://www.w3.org/2000/svg">
<path fill-rule="evenodd" clip-rule="evenodd" d="M20.2875 10.2273C20.2875 9.5182 20.2239 8.83639 20.1057 8.18184H10.6875V12.05H16.0693C15.8375 13.3 15.133 14.3591 14.0739 15.0682V17.5773H17.3057C19.1966 15.8364 20.2875 13.2728 20.2875 10.2273Z" fill="white"/>
<path fill-rule="evenodd" clip-rule="evenodd" d="M10.6871 20C13.3871 20 15.6508 19.1045 17.3053 17.5772L14.0735 15.0681C13.178 15.6681 12.0326 16.0227 10.6871 16.0227C8.08256 16.0227 5.87801 14.2636 5.09165 11.8999H1.75073V14.4909C3.39619 17.7591 6.77802 20 10.6871 20Z" fill="white"/>
<path fill-rule="evenodd" clip-rule="evenodd" d="M5.09205 11.9C4.89205 11.3 4.77842 10.659 4.77842 9.99995C4.77842 9.34086 4.89205 8.69995 5.09205 8.09995V5.50903H1.75114C1.07386 6.85904 0.6875 8.38631 0.6875 9.99995C0.6875 11.6136 1.07386 13.1409 1.75114 14.4909L5.09205 11.9Z" fill="white"/>
<path fill-rule="evenodd" clip-rule="evenodd" d="M10.6871 3.97728C12.1553 3.97728 13.4735 4.48183 14.5099 5.47274L17.378 2.60455C15.6462 0.990911 13.3826 0 10.6871 0C6.77802 0 3.39619 2.24091 1.75073 5.5091L5.09165 8.10002C5.87801 5.73638 8.08256 3.97728 10.6871 3.97728Z" fill="white"/>
</svg>
