<svg width="83" height="118" viewBox="0 0 83 118" fill="none" xmlns="http://www.w3.org/2000/svg">
<path d="M5.74254 118H77.2577C80.2199 118 82.6213 115.599 82.6213 112.636V51.8485C82.6213 48.8863 80.2199 46.4848 77.2577 46.4848H71.8941V30.3939C71.8941 13.6347 58.2593 0 41.5001 0C24.7409 0 11.1062 13.6347 11.1062 30.3939V46.4848H5.74254C2.78039 46.4848 0.378906 48.8863 0.378906 51.8485V112.636C0.378906 115.599 2.78039 118 5.74254 118ZM46.8638 84.0253V91.1818C46.8638 94.144 44.4623 96.5455 41.5001 96.5455C38.538 96.5455 36.1365 94.144 36.1365 91.1818V84.0253C33.9667 82.393 32.5607 79.7973 32.5607 76.8788C32.5607 71.9496 36.5709 67.9394 41.5001 67.9394C46.4293 67.9394 50.4395 71.9496 50.4395 76.8788C50.4395 79.7973 49.0335 82.393 46.8638 84.0253ZM21.8335 30.3939C21.8335 19.5497 30.6559 10.7273 41.5001 10.7273C52.3443 10.7273 61.1668 19.5497 61.1668 30.3939V46.4848H21.8335V30.3939Z" fill="url(#paint0_linear_228_6)"/>
<defs>
<linearGradient id="paint0_linear_228_6" x1="-6.80536e-07" y1="6.5" x2="83" y2="118" gradientUnits="userSpaceOnUse">
<stop stop-color="#5D6588"/>
<stop offset="0.502792" stop-color="#34384C"/>
<stop offset="1" stop-color="#34384C" stop-opacity="0"/>
</linearGradient>
</defs>
</svg>
