<svg width="30" height="25" viewBox="0 0 30 25" fill="none" xmlns="http://www.w3.org/2000/svg">
<path d="M28.9375 3.1875C29.0625 2.3125 29 1.75 28.625 1.375C28.25 1 27.75 0.9375 27.125 1.125L2.3125 10.6875C1.4375 11.0625 1 11.4375 1 11.8125C0.9375 12.25 1.25 12.5625 2 12.75L8.375 14.75L23.125 5.4375C23.3125 5.3125 23.5 5.25 23.6875 5.25C23.875 5.25 24 5.25 24.0625 5.375C24.125 5.5 24.0625 5.5625 23.9375 5.6875L12 16.5L11.5 23.0625C11.8125 23.0625 12.0625 23 12.3125 22.875C12.4375 22.8125 12.5625 22.6875 12.8125 22.4375L15.9375 19.4375L22.375 24.1875C22.9375 24.5625 23.4375 24.625 23.8125 24.4375C24.1875 24.25 24.5 23.8125 24.6875 23.0625L28.9375 3.1875Z" fill="white"/>
</svg>
