<svg width="109" height="26" viewBox="0 0 109 26" fill="none" xmlns="http://www.w3.org/2000/svg">
<rect width="25.7486" height="25.7486" rx="8.02339" fill="url(#paint0_linear_662_1119)"/>
<path opacity="0.65" d="M7.46094 15.2126V21.9103C9.30949 21.9103 10.8098 20.41 10.8098 18.5614V11.8638C8.96122 11.8638 7.46094 13.364 7.46094 15.2126Z" fill="white"/>
<path d="M17.5208 8.51485H7.46094V8.5115C7.46094 6.66295 8.95787 5.16602 10.8064 5.16602H20.8663V5.16936C20.8663 7.01792 19.3694 8.51485 17.5208 8.51485Z" fill="white"/>
<path d="M14.172 15.2126H7.46094V15.2093C7.46094 13.3607 8.95787 11.8638 10.8064 11.8638H17.5175V11.8671C17.5175 13.7157 16.0206 15.2126 14.172 15.2126Z" fill="white" fill-opacity="0.75"/>
<path d="M35.7812 19.9841H38.8568V14.7253H43.3182V12.4092H38.8568V8.82105H44.4953V6.40998H35.7812V19.9841Z" fill="white"/>
<path d="M50.4563 18.1046C48.8996 18.1046 48.0263 16.9655 48.0263 15.067V14.9152C48.0263 13.0167 48.9376 11.9156 50.4563 11.9156C51.9941 11.9156 52.8864 13.0547 52.8864 14.9531V15.086C52.8864 16.9655 51.9941 18.1046 50.4563 18.1046ZM50.4374 20.1929C53.418 20.1929 55.6772 18.1995 55.6772 15.067V14.9152C55.6772 11.8206 53.4369 9.82724 50.4563 9.82724C47.4757 9.82724 45.2165 11.8586 45.2165 14.9721V15.124C45.2165 18.2185 47.4757 20.1929 50.4374 20.1929Z" fill="white"/>
<path d="M57.5227 19.9841H60.2755V15.0101C60.2755 13.1116 61.4525 12.4471 63.4839 12.4661V9.90318C61.8702 9.92216 60.902 10.6246 60.2755 11.9535V10.0551H57.5227V19.9841Z" fill="white"/>
<path d="M67.4909 19.9841H70.2247L72.0472 13.7571L73.7369 19.9841H76.4327L79.5652 10.0551H76.9263L75.0468 16.7377L73.3002 10.0551H71.041L69.1236 16.7377L67.358 10.0551H64.4723L67.4909 19.9841Z" fill="white"/>
<path d="M83.467 20.1929C85.0238 20.1929 85.8971 19.5854 86.4666 18.7881V19.9841H89.1435V13.5103C89.1435 10.8144 87.4159 9.82724 84.9858 9.82724C82.5557 9.82724 80.6952 10.8714 80.5244 13.2255H83.1253C83.2392 12.3712 83.7328 11.8206 84.8149 11.8206C86.0679 11.8206 86.4286 12.4661 86.4286 13.6432V14.0419H85.3085C82.271 14.0419 80.1447 14.9152 80.1447 17.2313C80.1447 19.3196 81.6635 20.1929 83.467 20.1929ZM84.2834 18.2755C83.2772 18.2755 82.8405 17.8008 82.8405 17.0794C82.8405 16.0163 83.7708 15.6746 85.3655 15.6746H86.4286V16.5099C86.4286 17.611 85.4984 18.2755 84.2834 18.2755Z" fill="white"/>
<path d="M91.5062 19.9841H94.259V15.0101C94.259 13.1116 95.436 12.4471 97.4674 12.4661V9.90318C95.8537 9.92216 94.8855 10.6246 94.259 11.9535V10.0551H91.5062V19.9841Z" fill="white"/>
<path d="M102.81 20.1929C104.272 20.1929 105.487 19.3386 105.999 18.3324V19.9841H108.733V5.55566H105.999V11.5359C105.449 10.5297 104.462 9.82724 102.867 9.82724C100.38 9.82724 98.5004 11.7447 98.5004 15.0101V15.162C98.5004 18.4653 100.399 20.1929 102.81 20.1929ZM103.626 18.0477C102.259 18.0477 101.31 17.0794 101.31 15.105V14.9531C101.31 12.9787 102.165 11.9346 103.702 11.9346C105.202 11.9346 106.075 12.9407 106.075 14.9152V15.067C106.075 17.0794 105.069 18.0477 103.626 18.0477Z" fill="white"/>
<defs>
<linearGradient id="paint0_linear_662_1119" x1="12.8743" y1="0" x2="12.8743" y2="25.7486" gradientUnits="userSpaceOnUse">
<stop stop-color="#F92974"/>
<stop offset="0.9999" stop-color="#FF6666"/>
</linearGradient>
</defs>
</svg>
