<svg width="17" height="17" viewBox="0 0 17 17" fill="none" xmlns="http://www.w3.org/2000/svg">
<path d="M13.5417 2.08333H11.4583V1.04167H10.4167V2.08333H6.25V1.04167H5.20833V2.08333H3.125C2.55208 2.08333 2.08333 2.55208 2.08333 3.125V13.5417C2.08333 14.1146 2.55208 14.5833 3.125 14.5833H13.5417C14.1146 14.5833 14.5833 14.1146 14.5833 13.5417V3.125C14.5833 2.55208 14.1146 2.08333 13.5417 2.08333ZM13.5417 13.5417H3.125V6.25H13.5417V13.5417ZM13.5417 5.20833H3.125V3.125H5.20833V4.16667H6.25V3.125H10.4167V4.16667H11.4583V3.125H13.5417V5.20833Z" fill="#69698A"/>
</svg>
