<svg width="23" height="17" viewBox="0 0 23 17" fill="none" xmlns="http://www.w3.org/2000/svg">
<path d="M10.6784 6.144C10.3972 5.86281 10.3972 5.40695 10.6784 5.12576C10.9596 4.84457 11.4155 4.84457 11.6966 5.12576L14.0726 7.50168L16.4484 5.12576C16.7296 4.84457 17.1854 4.84457 17.4667 5.12576C17.7478 5.40689 17.7478 5.86281 17.4667 6.144L15.0907 8.51986L17.4667 10.8958C17.7478 11.1769 17.7478 11.6328 17.4667 11.914C17.1854 12.1952 16.7296 12.1952 16.4484 11.914L14.0726 9.53811L11.6966 11.914C11.4155 12.1952 10.9596 12.1952 10.6785 11.914C10.3972 11.6328 10.3972 11.1769 10.6785 10.8957L13.0543 8.51992L10.6784 6.144Z" fill="white"/>
<path fill-rule="evenodd" clip-rule="evenodd" d="M7.70906 1.20338L0.392578 8.51986L7.70906 15.8363C8.24918 16.3765 8.98172 16.6799 9.74555 16.6799H19.5926C21.1832 16.6799 22.4726 15.3904 22.4726 13.7999V3.23986C22.4726 1.64928 21.1832 0.359863 19.5926 0.359863H9.74555C8.98172 0.359863 8.24918 0.66332 7.70906 1.20338ZM19.5926 15.4319H9.74555C9.31266 15.4319 8.89758 15.2599 8.59148 14.9539L2.15754 8.51986L8.59148 2.08586C8.89758 1.77982 9.31266 1.60785 9.74555 1.60785H19.5926C20.4939 1.60785 21.2245 2.33852 21.2245 3.23986V13.7999C21.2245 14.7012 20.4939 15.4319 19.5926 15.4319Z" fill="white"/>
</svg>
