<svg width="40" height="40" viewBox="0 0 40 40" fill="none" xmlns="http://www.w3.org/2000/svg">
<path opacity="0.5" d="M19.9997 3.33325C16.7033 3.33325 13.481 4.31073 10.7402 6.14209C7.99936 7.97345 5.86315 10.5764 4.60169 13.6219C3.34023 16.6673 3.01017 20.0184 3.65326 23.2514C4.29635 26.4844 5.88369 29.4542 8.21457 31.785C10.5454 34.1159 13.5152 35.7033 16.7482 36.3463C19.9812 36.9894 23.3323 36.6594 26.3777 35.3979C29.4232 34.1365 32.0261 32.0002 33.8575 29.2594C35.6889 26.5186 36.6663 23.2963 36.6663 19.9999C36.6663 17.8112 36.2353 15.644 35.3977 13.6219C34.5601 11.5998 33.3324 9.76245 31.7848 8.21481C30.2372 6.66716 28.3998 5.4395 26.3777 4.60193C24.3556 3.76435 22.1884 3.33325 19.9997 3.33325ZM19.9997 33.3333C17.3626 33.3333 14.7847 32.5513 12.5921 31.0862C10.3994 29.6211 8.69046 27.5387 7.68129 25.1024C6.67212 22.666 6.40808 19.9851 6.92255 17.3987C7.43702 14.8123 8.70689 12.4365 10.5716 10.5718C12.4363 8.70713 14.8121 7.43725 17.3985 6.92278C19.9849 6.40831 22.6658 6.67236 25.1021 7.68153C27.5385 8.69069 29.6209 10.3997 31.0859 12.5923C32.551 14.785 33.333 17.3628 33.333 19.9999C33.333 23.5361 31.9283 26.9275 29.4278 29.428C26.9273 31.9285 23.5359 33.3333 19.9997 33.3333Z" fill="#5D6588"/>
<path d="M33.3333 19.9999H36.6667C36.6667 17.8112 36.2356 15.644 35.398 13.6219C34.5604 11.5998 33.3328 9.76245 31.7851 8.21481C30.2375 6.66716 28.4002 5.4395 26.3781 4.60193C24.356 3.76435 22.1887 3.33325 20 3.33325V6.66659C23.5362 6.66659 26.9276 8.07134 29.4281 10.5718C31.9286 13.0723 33.3333 16.4637 33.3333 19.9999Z" fill="#F2F4FC"/>
</svg>
  